<?xml version="1.0" standalone="no"?>
<!DOCTYPE svg PUBLIC "-//W3C//DTD SVG 20010904//EN"
 "http://www.w3.org/TR/2001/REC-SVG-20010904/DTD/svg10.dtd">
<svg version="1.0" xmlns="http://www.w3.org/2000/svg"
 width="500.000000pt" height="500.000000pt" viewBox="0 0 500.000000 500.000000"
 preserveAspectRatio="xMidYMid meet">

<g transform="translate(0.000000,500.000000) scale(0.100000,-0.100000)"
fill="#000000" stroke="none">
<path d="M2320 4993 c-567 -56 -1023 -242 -1420 -578 -408 -346 -684 -786
-815 -1300 -138 -542 -82 -1146 152 -1648 137 -294 280 -496 517 -732 212
-211 389 -337 661 -470 344 -169 682 -247 1075 -248 300 -1 523 34 805 127
484 160 889 455 1209 880 251 334 415 742 471 1171 18 139 21 435 5 575 -63
572 -305 1084 -700 1481 -421 423 -937 672 -1528 734 -123 13 -341 17 -432 8z
m431 -158 c338 -36 660 -142 941 -310 611 -367 1001 -936 1123 -1638 8 -49 19
-159 25 -245 41 -621 -182 -1249 -608 -1714 -371 -404 -840 -654 -1387 -739
-263 -41 -642 -26 -887 36 -229 58 -488 165 -670 277 -597 368 -996 963 -1103
1648 -22 144 -31 449 -16 590 39 373 172 747 374 1053 190 289 465 553 750
721 451 267 946 376 1458 321z"/>
<path d="M2412 4485 c2 -41 2 -75 1 -75 -2 0 -26 32 -54 70 -43 59 -55 70 -80
70 -27 0 -29 -3 -29 -38 0 -22 3 -80 6 -130 l7 -92 30 0 29 0 -4 75 c-2 41 -2
75 -1 75 2 0 26 -31 54 -70 43 -59 55 -70 80 -70 27 0 29 3 29 38 0 22 -3 80
-6 130 l-7 92 -30 0 -29 0 4 -75z"/>
<path d="M2548 4536 c-5 -27 7 -36 48 -36 20 0 24 -4 20 -22 -3 -13 -7 -59 -8
-103 -3 -80 -3 -80 23 -83 24 -3 27 1 33 44 3 26 6 64 6 85 0 57 8 69 46 69
30 0 34 3 34 25 0 28 -8 31 -121 40 -76 6 -77 5 -81 -19z"/>
<path d="M2811 4423 c-33 -159 -38 -143 54 -163 83 -18 95 -16 95 21 0 12 -12
19 -42 23 -55 8 -70 18 -62 40 6 14 15 16 60 10 53 -6 54 -6 54 20 0 14 -6 26
-12 26 -7 0 -29 5 -50 10 -30 9 -35 14 -31 31 5 19 11 20 51 14 24 -4 51 -9
58 -12 10 -4 14 4 14 25 0 28 -3 30 -62 41 -35 7 -72 15 -84 17 -19 5 -22 -3
-43 -103z"/>
<path d="M1983 4490 c-40 -24 -53 -48 -53 -100 0 -51 23 -103 55 -124 69 -46
183 -3 199 75 9 45 -11 107 -44 141 -23 23 -37 28 -77 28 -30 0 -60 -7 -80
-20z m116 -56 c29 -37 28 -98 -1 -118 -36 -26 -66 -20 -88 17 -25 41 -25 82 0
107 28 28 64 25 89 -6z"/>
<path d="M3051 4349 c-24 -66 -42 -122 -40 -124 2 -2 16 -6 30 -10 24 -6 26
-2 51 67 l25 73 17 -80 c10 -44 19 -86 22 -93 4 -13 45 -32 55 -26 9 5 93 234
88 239 -2 2 -15 6 -29 10 -23 5 -27 1 -49 -61 -27 -75 -32 -72 -51 28 -12 69
-20 81 -55 92 -18 5 -25 -8 -64 -115z"/>
<path d="M1705 4401 c-46 -18 -69 -32 -67 -42 1 -8 22 -60 44 -116 42 -102 54
-115 86 -94 11 7 11 15 -3 47 -29 71 6 87 65 29 33 -32 39 -35 65 -25 l28 11
-40 42 c-36 38 -40 46 -36 84 4 35 1 46 -21 67 -31 32 -34 32 -121 -3z m83
-58 c4 -27 -55 -54 -69 -32 -15 24 -10 37 19 47 35 13 46 10 50 -15z"/>
<path d="M3335 4238 c-32 -57 -60 -106 -62 -111 -3 -4 25 -21 62 -38 81 -38
119 -35 163 16 50 56 54 131 9 173 -28 26 -89 62 -103 62 -7 0 -38 -46 -69
-102z m128 4 c22 -20 22 -49 -3 -89 -21 -36 -61 -44 -93 -20 -14 11 -13 18 19
75 36 62 41 65 77 34z"/>
<path d="M1475 4290 c-38 -22 -69 -45 -67 -52 7 -28 115 -208 124 -208 5 0 18
5 29 11 20 10 20 11 -5 54 -28 47 -27 49 32 79 29 15 31 19 21 39 -7 12 -13
23 -14 25 -1 1 -23 -9 -48 -23 -45 -26 -46 -26 -56 -6 -10 18 -6 23 34 46 46
28 49 32 39 59 -8 21 -9 21 -89 -24z"/>
<path d="M1089 3873 c-508 -533 -689 -1238 -490 -1910 73 -245 243 -554 398
-722 42 -45 42 -46 43 -19 0 19 -23 58 -74 125 -197 262 -315 521 -373 823
-33 174 -37 453 -9 620 67 402 249 755 545 1063 81 84 83 87 54 87 -24 0 -43
-14 -94 -67z"/>
<path d="M3780 3933 c0 -5 34 -42 76 -83 136 -136 272 -326 369 -519 135 -269
194 -519 194 -826 1 -412 -125 -785 -381 -1128 -43 -58 -58 -87 -58 -110 l1
-32 35 40 c59 68 171 237 230 349 100 190 168 394 199 604 19 127 19 427 0
554 -60 397 -249 776 -539 1076 -55 56 -87 82 -103 82 -13 0 -23 -3 -23 -7z"/>
<path d="M1770 3680 c-13 -8 -16 -111 -20 -797 l-5 -788 -25 -45 c-37 -65 -65
-72 -275 -68 -192 3 -208 8 -241 75 -16 32 -20 69 -24 235 -4 143 -9 201 -18
210 -10 10 -57 13 -182 13 -149 0 -171 -2 -187 -18 -16 -16 -18 -39 -17 -230
0 -133 5 -234 13 -272 38 -175 157 -301 334 -352 81 -23 504 -30 620 -10 211
37 347 158 392 349 12 53 15 193 15 870 0 720 -2 808 -16 822 -13 13 -44 16
-182 16 -92 0 -174 -5 -182 -10z"/>
<path d="M2576 3674 c-14 -14 -16 -120 -16 -1018 0 -921 1 -1005 17 -1017 23
-20 343 -20 366 0 15 12 17 50 17 365 0 202 4 357 10 366 13 21 231 28 247 8
6 -7 84 -171 173 -363 89 -193 170 -359 181 -370 18 -19 33 -20 205 -20 172 0
187 1 200 19 8 11 11 29 8 40 -3 12 -82 179 -175 373 -93 194 -169 356 -169
361 0 5 26 25 58 45 103 63 169 153 203 272 10 37 14 116 14 315 -1 246 -2
269 -22 322 -60 160 -178 263 -344 303 -52 12 -148 15 -511 15 -393 0 -448 -2
-462 -16z m849 -359 c22 -11 50 -35 62 -54 22 -32 23 -43 23 -236 0 -193 -1
-204 -23 -236 -43 -66 -76 -74 -304 -74 -111 0 -205 4 -210 8 -4 5 -9 138 -11
297 -3 259 -1 289 14 305 15 15 40 16 213 13 172 -3 201 -5 236 -23z"/>
<path d="M1446 1401 c-105 -166 -108 -172 -89 -187 34 -26 99 -54 127 -54 42
0 79 24 104 68 41 73 23 130 -56 181 -27 17 -52 31 -55 31 -4 0 -18 -18 -31
-39z m88 -63 c35 -50 1 -118 -59 -118 -55 0 -59 19 -19 83 39 62 55 69 78 35z"/>
<path d="M3460 1407 c-14 -7 -44 -26 -67 -40 l-43 -27 52 -83 c28 -45 59 -94
67 -109 15 -26 16 -26 42 -11 l27 16 -25 39 c-19 31 -22 42 -12 54 17 20 26
18 70 -17 38 -30 40 -30 64 -15 14 9 25 18 25 21 0 2 -20 18 -45 35 -39 27
-44 34 -39 58 4 21 -1 36 -21 60 -29 34 -55 40 -95 19z m55 -64 c4 -12 -1 -24
-15 -35 -29 -23 -47 -23 -60 2 -9 16 -6 22 17 34 37 20 49 20 58 -1z"/>
<path d="M1651 1193 c-28 -64 -50 -117 -49 -119 2 -1 38 -18 81 -38 l78 -35
10 26 c5 14 8 26 7 27 -2 1 -24 11 -50 24 -50 23 -54 28 -39 51 7 11 17 9 55
-7 45 -20 46 -20 56 -2 15 28 14 29 -35 51 -47 21 -50 25 -35 49 8 12 16 11
61 -8 29 -12 53 -21 55 -19 1 1 5 12 8 24 6 20 1 26 -51 49 -110 49 -94 57
-152 -73z"/>
<path d="M3215 1278 c-38 -18 -71 -33 -72 -33 -3 -2 96 -227 102 -233 2 -2 39
13 83 33 77 35 80 38 70 61 -11 22 -12 23 -47 7 -58 -25 -72 -27 -82 -12 -14
22 -12 25 34 44 23 11 44 20 45 21 2 1 1 12 -3 23 -8 25 -23 26 -70 4 -31 -15
-37 -15 -45 -3 -16 25 -12 30 38 52 58 25 55 22 47 47 -8 28 -17 27 -100 -11z"/>
<path d="M1903 1089 c3 -72 7 -133 10 -135 2 -2 17 -6 33 -10 28 -5 33 0 102
101 40 58 70 110 67 115 -3 6 -17 10 -29 10 -18 0 -35 -18 -75 -77 l-51 -78 0
96 c0 92 -1 97 -22 103 -13 3 -27 6 -32 6 -5 0 -7 -56 -3 -131z"/>
<path d="M2971 1190 c-35 -11 -65 -21 -67 -22 -3 -4 63 -239 69 -245 5 -4 57
15 57 20 0 3 -7 23 -15 46 -14 41 -14 42 11 51 14 6 30 10 35 10 22 0 59 50
59 80 0 35 -38 80 -67 79 -10 0 -47 -9 -82 -19z m86 -56 c8 -21 -21 -44 -54
-44 -18 0 -23 6 -23 24 0 34 65 51 77 20z"/>
<path d="M2148 1028 c-9 -68 -14 -125 -12 -127 7 -7 164 -28 169 -23 3 3 5 15
5 28 0 19 -7 23 -55 29 -50 6 -55 9 -55 31 0 23 2 24 55 18 54 -7 55 -6 55 19
0 24 -5 27 -50 33 -27 4 -50 12 -50 18 1 26 17 34 70 33 49 -2 55 0 58 19 3
19 -4 22 -73 33 -42 6 -81 11 -88 11 -8 0 -18 -41 -29 -122z"/>
<path d="M2725 1143 c-42 -9 -75 -26 -88 -47 -60 -91 -3 -216 99 -216 83 0
134 47 134 125 0 88 -69 154 -145 138z m60 -76 c8 -13 17 -36 21 -53 10 -53
-51 -104 -92 -76 -35 23 -45 103 -17 134 23 26 69 23 88 -5z"/>
<path d="M2400 1103 c0 -15 -3 -74 -7 -130 l-6 -103 87 0 c85 0 86 0 86 25 0
24 -3 25 -55 25 l-54 0 2 103 2 102 -27 3 c-25 3 -28 0 -28 -25z"/>
</g>
</svg>
